<svg width="222" height="219" viewBox="0 0 222 219" fill="none" xmlns="http://www.w3.org/2000/svg">
<circle cx="114.312" cy="112.001" r="104.906" fill="#212834" stroke="#805AD5" stroke-width="2.52786"/>
<mask id="mask0_9_190" style="mask-type:alpha" maskUnits="userSpaceOnUse" x="8" y="5" width="213" height="214">
<circle cx="114.312" cy="112.001" r="104.843" fill="white" stroke="white" stroke-width="2.65425"/>
</mask>
<g mask="url(#mask0_9_190)">
<path opacity="0.4256" fill-rule="evenodd" clip-rule="evenodd" d="M517.581 185.437C517.581 185.437 429.823 110.012 369.618 136.843C309.412 163.674 202.825 204.524 202.825 204.524L236.283 432.795H593.984L589.498 208.158L517.581 185.437Z" fill="url(#paint0_linear_9_190)"/>
<path d="M226.74 110.85C187.21 108.69 188.529 129.792 149.059 127.635C109.53 125.475 108.211 104.374 68.7412 102.217C29.2121 100.057 30.5309 121.159 -8.93915 119.002L-8.99815 118.999L-2.74328 219.076L271.187 234.043L264.187 122.035C254.801 116.731 244.734 111.833 226.74 110.85Z" fill="url(#paint1_linear_9_190)"/>
<circle cx="114.312" cy="112.001" r="104.906" stroke="#805AD5" stroke-width="2.52786"/>
</g>
<path fill-rule="evenodd" clip-rule="evenodd" d="M220.475 112.074C204.836 112.207 196.354 116.416 187.874 120.623C178.333 125.357 168.795 130.089 149.067 129.012C129.295 127.931 119.083 122.112 108.874 116.295C98.6735 110.482 88.4765 104.671 68.7488 103.594C48.9769 102.513 39.4246 107.253 29.8758 111.99C23.6394 115.085 17.4044 118.178 8.32478 119.649C8.20385 117.573 8.14253 115.482 8.14253 113.376C8.14253 54.7398 55.6765 7.20589 114.313 7.20589C172.514 7.2059 219.777 54.0379 220.475 112.074Z" fill="url(#paint2_linear_9_190)"/>
<circle cx="114.313" cy="112.001" r="104.906" stroke="#5939A2" stroke-width="2.52786"/>
<defs>
<linearGradient id="paint0_linear_9_190" x1="501.851" y1="109.834" x2="498.582" y2="432.776" gradientUnits="userSpaceOnUse">
<stop offset="0.4375" stop-color="#7277FF"/>
<stop offset="1" stop-color="#001AFF" stop-opacity="0"/>
</linearGradient>
<linearGradient id="paint1_linear_9_190" x1="126.648" y1="105.381" x2="120.07" y2="225.786" gradientUnits="userSpaceOnUse">
<stop stop-color="#AE89FF"/>
<stop offset="0.368052" stop-color="#AE8BFE" stop-opacity="0.989375"/>
<stop offset="1" stop-color="#854EFF" stop-opacity="0.98"/>
</linearGradient>
<linearGradient id="paint2_linear_9_190" x1="107.645" y1="6.68036" x2="97.6318" y2="127.406" gradientUnits="userSpaceOnUse">
<stop stop-color="#783EF9"/>
<stop offset="0.432292" stop-color="#8F67EA"/>
<stop offset="1" stop-color="#905FFF"/>
</linearGradient>
</defs>
</svg>
